<svg width="124" height="52" viewBox="0 0 124 52" fill="none" xmlns="http://www.w3.org/2000/svg">
<path fill-rule="evenodd" clip-rule="evenodd" d="M123.077 26.4616C123.077 17.7095 118.838 10.8035 110.735 10.8035C102.598 10.8035 97.6752 17.7094 97.6752 26.3932C97.6752 36.6838 103.487 41.8804 111.829 41.8804C115.897 41.8804 118.974 40.9573 121.299 39.6582V32.8206C118.974 33.983 116.308 34.7009 112.923 34.7009C109.607 34.7009 106.667 33.5385 106.291 29.5043H123.009C123.009 29.0599 123.077 27.2821 123.077 26.4616ZM106.188 23.2137C106.188 19.3505 108.547 17.7436 110.701 17.7436C112.786 17.7436 115.009 19.3505 115.009 23.2137H106.188Z" fill="#152C5B"/>
<path fill-rule="evenodd" clip-rule="evenodd" d="M84.4786 10.8035C81.1282 10.8035 78.9744 12.3761 77.7778 13.4701L77.3333 11.3505H69.812V51.2137L78.359 49.4018L78.3932 39.7265C79.6239 40.6154 81.4359 41.8804 84.4445 41.8804C90.5641 41.8804 96.1368 36.9573 96.1368 26.1197C96.1026 16.2052 90.4616 10.8035 84.4786 10.8035ZM82.4274 34.359C80.4103 34.359 79.2137 33.6411 78.3932 32.7522L78.359 20.0684C79.2479 19.077 80.4786 18.3932 82.4274 18.3932C85.5385 18.3932 87.6923 21.8804 87.6923 26.359C87.6923 30.9402 85.5727 34.359 82.4274 34.359Z" fill="#152C5B"/>
<path fill-rule="evenodd" clip-rule="evenodd" d="M58.0513 8.78633L66.6325 6.94017V0L58.0513 1.81197V8.78633Z" fill="#152C5B"/>
<path d="M66.6325 11.3846H58.0513V41.2992H66.6325V11.3846Z" fill="#152C5B"/>
<path fill-rule="evenodd" clip-rule="evenodd" d="M48.8547 13.9145L48.3077 11.3846H40.9231V41.2992H49.4701V21.0257C51.4872 18.3932 54.906 18.8718 55.9658 19.2479V11.3846C54.8718 10.9744 50.8718 10.2222 48.8547 13.9145Z" fill="#152C5B"/>
<path fill-rule="evenodd" clip-rule="evenodd" d="M31.7607 3.96582L23.4188 5.7436L23.3846 33.1282C23.3846 38.188 27.1795 41.9145 32.2393 41.9145C35.0427 41.9145 37.094 41.4017 38.2222 40.7863V33.8462C37.1282 34.2906 31.7265 35.8633 31.7265 30.8034V18.6667H38.2222V11.3846H31.7265L31.7607 3.96582Z" fill="#152C5B"/>
<path fill-rule="evenodd" clip-rule="evenodd" d="M8.64957 20.0684C8.64957 18.7351 9.74359 18.2223 11.5556 18.2223C14.1538 18.2223 17.4359 19.0086 20.0342 20.4103V12.3761C17.1966 11.2479 14.3932 10.8035 11.5556 10.8035C4.61539 10.8035 0 14.4274 0 20.4787C0 29.9146 12.9915 28.4103 12.9915 32.4787C12.9915 34.0513 11.6239 34.5642 9.7094 34.5642C6.8718 34.5642 3.24786 33.4018 0.376068 31.8291V39.9659C3.55556 41.3334 6.76923 41.9146 9.7094 41.9146C16.8205 41.9146 21.7094 38.3932 21.7094 32.2736C21.6752 22.0855 8.64957 23.8975 8.64957 20.0684Z" fill="#152C5B"/>
</svg>
